<?xml version="1.0" encoding="UTF-8"?>
<svg width="33px" height="38px" viewBox="0 0 33 38" version="1.1" xmlns="http://www.w3.org/2000/svg" xmlns:xlink="http://www.w3.org/1999/xlink">
    <!-- Generator: Sketch 49.1 (51147) - http://www.bohemiancoding.com/sketch -->
    <title>android@1x</title>
    <desc>Created with Sketch.</desc>
    <defs></defs>
    <g id="Page-1" stroke="none" stroke-width="1" fill="none" fill-rule="evenodd">
        <g id="Landing-1" transform="translate(-637.000000, -529.000000)" fill="#FFFFFF" fill-rule="nonzero">
            <g id="Intro" transform="translate(1.000000, -108.000000)">
                <path d="M638.362622,649.390825 C639.60889,649.390825 640.627901,650.411491 640.629556,651.656029 L640.629556,661.518755 C640.629556,662.764948 639.612125,663.785614 638.364277,663.785614 L638.265279,663.785614 C637.017431,663.785614 636,662.768258 636,661.518755 L636,651.656105 C636,650.411491 637.017431,649.390825 638.265279,649.390825 L638.362622,649.390825 Z M641.713487,665.325565 L641.713487,649.752662 L662.698071,649.752662 L662.698071,665.325565 C662.698071,666.471181 661.761733,667.404209 660.617772,667.404209 L658.391459,667.404209 L658.391459,672.731486 C658.391459,673.980989 657.374028,675 656.1246,675 L656.028838,675 C654.784224,675 653.760323,673.982569 653.760323,672.731486 L653.760323,667.404209 L650.651234,667.404209 L650.651234,672.731486 C650.651234,673.980989 649.632223,675 648.38272,675 L648.285378,675 C647.040764,675 646.020098,673.982569 646.020098,672.731486 L646.020098,667.404209 L643.795366,667.404209 C642.64975,667.404209 641.713487,666.471181 641.713487,665.325565 Z M657.432404,640.308644 C660.619352,641.871313 662.77104,644.816485 662.770965,648.194883 C662.770965,648.402582 662.759606,648.607046 662.741777,648.809855 L641.67452,648.809855 C641.656692,648.607046 641.643677,648.402582 641.643677,648.194883 C641.643677,644.816485 643.793711,641.871313 646.982314,640.308644 L645.213601,637.580951 C645.10001,637.408909 645.150336,637.173602 645.323957,637.061666 C645.497579,636.948075 645.734541,636.995166 645.846477,637.172022 L647.67522,639.993899 C649.052833,639.430832 650.584659,639.114432 652.207359,639.114432 C653.828478,639.114432 655.363539,639.430832 656.737918,639.993899 L658.569895,637.172022 C658.681907,636.995166 658.917214,636.948075 659.08918,637.061666 C659.262802,637.173677 659.313128,637.408909 659.199537,637.580951 L657.432404,640.308644 Z M666.146203,649.390825 C667.394051,649.390825 668.413138,650.411491 668.413138,651.656029 L668.413138,661.518755 C668.413138,662.764948 667.397286,663.785614 666.147858,663.785614 L666.052095,663.785614 C664.805902,663.785614 663.783581,662.768258 663.783581,661.518755 L663.783581,651.656105 C663.783581,650.411491 664.804247,649.390825 666.052095,649.390825 L666.146203,649.390825 Z M647.323087,645.192915 C647.882919,645.192915 648.337284,644.741861 648.337284,644.180374 C648.337284,643.618887 647.886154,643.169412 647.323087,643.169412 C646.763256,643.169412 646.308891,643.618963 646.308891,644.180374 C646.308891,644.741785 646.763256,645.192915 647.323087,645.192915 Z M657.09005,645.192915 C657.651462,645.192915 658.102592,644.741785 658.102592,644.180374 C658.102592,643.618887 657.651462,643.169412 657.09005,643.169412 C656.530219,643.169412 656.075854,643.618963 656.075854,644.180374 C656.075854,644.741785 656.530219,645.192915 657.09005,645.192915 Z" id="android"></path>
            </g>
        </g>
    </g>
</svg>