<?xml version="1.0" encoding="UTF-8"?>
<svg width="29px" height="36px" viewBox="0 0 29 36" version="1.1" xmlns="http://www.w3.org/2000/svg" xmlns:xlink="http://www.w3.org/1999/xlink">
    <!-- Generator: Sketch 49.1 (51147) - http://www.bohemiancoding.com/sketch -->
    <title>apple@1x</title>
    <desc>Created with Sketch.</desc>
    <defs></defs>
    <g id="Page-1" stroke="none" stroke-width="1" fill="none" fill-rule="evenodd">
        <g id="Landing-1" transform="translate(-586.000000, -529.000000)" fill="#FFFFFF" fill-rule="nonzero">
            <g id="Intro" transform="translate(1.000000, -108.000000)">
                <path d="M613.913523,663.202 C613.817523,663.473 613.724523,663.764 613.617523,664.05 C612.731523,666.449 611.386523,668.579 609.754523,670.531 C609.439523,670.911 609.072523,671.255 608.693523,671.574 C607.944523,672.208 607.082523,672.591 606.085523,672.626 C605.336523,672.65 604.617523,672.514 603.924523,672.232 C603.422523,672.027 602.928523,671.798 602.419523,671.613 C600.767523,671.013 599.124523,671.092 597.499523,671.734 C596.913523,671.966 596.335523,672.222 595.738523,672.423 C595.046523,672.655 594.328523,672.749 593.597523,672.611 C592.959523,672.492 592.401523,672.195 591.883523,671.812 C591.240523,671.336 590.700523,670.756 590.195523,670.142 C587.804523,667.226 586.199523,663.929 585.424523,660.236 C585.090523,658.648 584.930523,657.047 585.028523,655.424 C585.143523,653.478 585.595523,651.625 586.635523,649.955 C587.940523,647.856 589.781523,646.481 592.203523,645.914 C593.660523,645.571 595.077523,645.711 596.466523,646.246 C597.197523,646.526 597.930523,646.803 598.664523,647.078 C599.340523,647.332 600.013523,647.332 600.690523,647.073 C601.439523,646.787 602.189523,646.502 602.941523,646.223 C603.712523,645.942 604.496523,645.712 605.314523,645.647 C606.538523,645.548 607.732523,645.707 608.894523,646.096 C610.541523,646.647 611.881523,647.622 612.893523,649.042 C612.920523,649.081 612.950523,649.124 612.970523,649.155 C610.418523,650.934 608.965523,653.284 609.176523,656.466 C609.389523,659.65 611.103523,661.804 613.913523,663.202 Z M599.598523,645.253 C600.351523,645.273 601.075523,645.128 601.772523,644.851 C604.951523,643.589 606.613523,640.226 606.563523,637.654 C606.559523,637.447 606.545523,637.24 606.536523,637 C606.209523,637.049 605.911523,637.072 605.625523,637.144 C603.304523,637.713 601.518523,639.008 600.344523,641.105 C599.657523,642.333 599.275523,643.637 599.392523,645.062 C599.400523,645.213 599.455523,645.251 599.598523,645.253 Z" id="apple"></path>
            </g>
        </g>
    </g>
</svg>