<?xml version="1.0" encoding="UTF-8"?>
<svg width="163px" height="61px" viewBox="0 0 163 61" version="1.1" xmlns="http://www.w3.org/2000/svg" xmlns:xlink="http://www.w3.org/1999/xlink">
    <!-- Generator: Sketch 49.1 (51147) - http://www.bohemiancoding.com/sketch -->
    <title>Liftoo footer logo@1x</title>
    <desc>Created with Sketch.</desc>
    <defs></defs>
    <g id="Page-1" stroke="none" stroke-width="1" fill="none" fill-rule="evenodd">
        <g id="Landing-1" transform="translate(-456.000000, -5765.000000)" fill="#949494" fill-rule="nonzero">
            <g id="Footer" transform="translate(456.000000, 5765.000000)">
                <path d="M9.64124501,39.560421 C9.64124501,39.9370321 9.49060056,40.3136433 9.18931165,40.6149322 C8.88802275,40.9162211 8.51141161,41.0668655 8.05947825,41.0668655 L1.73241121,41.0668655 C1.28047785,41.0668655 0.90386672,40.9162211 0.527255587,40.6149322 C0.150644453,40.3136433 0,39.9370321 0,39.4850988 L0,26.3037091 C0,25.927098 0.150644453,25.5504868 0.45193336,25.2491979 C0.753222267,24.947909 1.1298334,24.7972646 1.58176676,24.7972646 C2.03370012,24.7972646 2.41031125,24.947909 2.71160016,25.2491979 C3.01288907,25.5504868 3.16353352,25.8517757 3.16353352,26.3037091 L3.16353352,38.1292987 L8.05947825,38.1292987 C8.43608939,38.1292987 8.81270052,38.2799431 9.11398943,38.5059098 C9.49060056,38.8071987 9.64124501,39.1084876 9.64124501,39.560421 Z M22.7473125,26.3037091 C22.7473125,25.927098 22.8979569,25.5504868 23.1992458,25.2491979 C23.5005347,24.947909 23.8771459,24.7972646 24.3290792,24.7972646 C24.7810126,24.7972646 25.1576237,24.947909 25.4589126,25.2491979 C25.7602015,25.5504868 25.910846,25.8517757 25.910846,26.3037091 L25.910846,39.7110654 C25.910846,40.0876766 25.7602015,40.4642877 25.4589126,40.7655766 C25.1576237,41.0668655 24.7810126,41.21751 24.3290792,41.21751 C23.8771459,41.21751 23.5005347,41.0668655 23.1992458,40.7655766 C22.8979569,40.4642877 22.7473125,40.1629988 22.7473125,39.7110654 L22.7473125,26.3037091 Z M43.2349581,39.7110654 C43.2349581,40.0876766 43.0843136,40.4642877 42.7830247,40.7655766 C42.4817358,41.0668655 42.1051247,41.21751 41.6531913,41.21751 C41.201258,41.21751 40.8246468,41.0668655 40.5233579,40.7655766 C40.222069,40.4642877 40.0714246,40.1629988 40.0714246,39.7110654 L40.0714246,26.604998 C40.0714246,26.3790313 40.1467468,26.2283869 40.222069,26.0024202 C40.2973913,25.7764535 40.4480357,25.6258091 40.5986802,25.4751646 C40.7493246,25.3245201 40.8999691,25.1738757 41.1259358,25.0985535 C41.3519024,25.0232312 41.5778691,24.947909 41.8038358,24.947909 L47.9049362,24.947909 C48.3568695,24.947909 48.7334806,25.0985535 49.0347696,25.3998424 C49.3360585,25.7011313 49.4867029,26.0024202 49.4867029,26.4543535 C49.4867029,26.8309647 49.3360585,27.2075758 49.0347696,27.4335425 C48.7334806,27.7348314 48.3568695,27.8101536 47.9049362,27.8101536 L43.2349581,27.8101536 L43.2349581,31.5009427 L47.528325,31.5009427 C47.9049362,31.5009427 48.2815473,31.6515872 48.5828362,31.8775539 C48.8841251,32.1035205 49.0347696,32.4801317 49.0347696,32.932065 C49.0347696,33.3086762 48.8841251,33.6852873 48.5828362,33.9865762 C48.2815473,34.2878651 47.9049362,34.4385096 47.4530028,34.4385096 L43.1596359,34.4385096 L43.1596359,39.7110654 L43.2349581,39.7110654 Z M108.765295,27.8854759 L106.354984,27.8854759 C105.903051,27.8854759 105.52644,27.7348314 105.225151,27.4335425 C104.923862,27.1322536 104.773217,26.8309647 104.773217,26.4543535 C104.773217,26.3037091 104.84854,26.1530646 104.923862,26.0024202 C104.999184,25.8517757 105.149828,25.7011313 105.300473,25.5504868 C105.451117,25.3998424 105.601762,25.3245201 105.827728,25.1738757 C106.053695,25.0985535 106.20434,25.0232312 106.430306,25.0232312 L114.414462,25.0232312 C114.791073,25.0232312 115.167685,25.1738757 115.544296,25.4751646 C115.920907,25.7764535 116.071551,26.0777424 116.071551,26.5296758 C116.071551,26.9062869 115.920907,27.282898 115.619618,27.5088647 C115.318329,27.7348314 114.941718,27.9607981 114.489785,27.9607981 L112.079473,27.9607981 L112.079473,39.7863877 C112.079473,40.1629988 111.928829,40.5396099 111.62754,40.8408988 C111.326251,41.1421877 110.94964,41.2928322 110.497707,41.2928322 C110.045773,41.2928322 109.669162,41.1421877 109.367873,40.8408988 C109.066584,40.5396099 108.91594,40.238321 108.91594,39.7863877 L108.91594,27.8854759 L108.765295,27.8854759 Z M131.889219,41.3681544 C130.91003,41.3681544 130.081485,41.21751 129.328263,40.9162211 C128.575041,40.6149322 127.972463,40.1629988 127.52053,39.6357432 C126.993274,39.1084876 126.691985,38.5059098 126.390696,37.7526875 C126.16473,36.9994653 126.014085,36.246243 126.014085,35.4176985 L126.014085,30.9736871 C126.014085,30.1451427 126.089407,29.3919204 126.315374,28.7140203 C126.541341,27.9607981 126.84263,27.3582203 127.369885,26.8309647 C127.821819,26.3037091 128.424396,25.8517757 129.177619,25.5504868 C129.930841,25.2491979 130.834708,25.0985535 131.889219,25.0985535 C132.94373,25.0985535 133.847597,25.2491979 134.600819,25.5504868 C135.354041,25.8517757 135.956619,26.3037091 136.408552,26.8309647 C136.860486,27.3582203 137.237097,28.0361203 137.463064,28.7140203 C137.68903,29.4672426 137.764353,30.2204649 137.764353,30.9736871 L137.764353,35.4176985 C137.764353,36.246243 137.613708,36.9994653 137.387741,37.7526875 C137.161775,38.5059098 136.785164,39.1084876 136.257908,39.6357432 C135.730652,40.1629988 135.128075,40.6149322 134.450175,40.9162211 C133.772275,41.21751 132.868408,41.3681544 131.889219,41.3681544 Z M131.889219,27.8854759 C130.91003,27.8854759 130.23213,28.1867648 129.780197,28.7140203 C129.403585,29.2412759 129.177619,29.9944982 129.177619,30.8983649 L129.177619,35.3423763 C129.177619,36.246243 129.403585,36.9994653 129.855519,37.5267209 C130.307452,38.1292987 130.985352,38.3552654 131.889219,38.3552654 C132.793086,38.3552654 133.470986,38.0539765 133.922919,37.5267209 C134.374852,36.9241431 134.600819,36.246243 134.600819,35.3423763 L134.600819,30.8983649 C134.600819,29.9944982 134.374852,29.2412759 133.998241,28.7140203 C133.62163,28.1114425 132.94373,27.8854759 131.889219,27.8854759 Z M156.97152,41.3681544 C155.992331,41.3681544 155.163787,41.21751 154.410565,40.9162211 C153.657342,40.6149322 153.054765,40.1629988 152.602831,39.6357432 C152.075576,39.1084876 151.774287,38.5059098 151.472998,37.7526875 C151.247031,36.9994653 151.096387,36.246243 151.096387,35.4176985 L151.096387,30.9736871 C151.096387,30.1451427 151.171709,29.3919204 151.397676,28.7140203 C151.623642,27.9607981 151.924931,27.3582203 152.452187,26.8309647 C152.90412,26.3037091 153.506698,25.8517757 154.25992,25.5504868 C155.013142,25.2491979 155.917009,25.0985535 156.97152,25.0985535 C158.026032,25.0985535 158.929898,25.2491979 159.683121,25.5504868 C160.436343,25.8517757 161.038921,26.3037091 161.490854,26.8309647 C161.942787,27.3582203 162.319398,28.0361203 162.545365,28.7140203 C162.771332,29.4672426 162.846654,30.2204649 162.846654,30.9736871 L162.846654,35.4176985 C162.846654,36.246243 162.69601,36.9994653 162.470043,37.7526875 C162.244076,38.5059098 161.867465,39.1084876 161.34021,39.6357432 C160.812954,40.1629988 160.210376,40.6149322 159.532476,40.9162211 C158.854576,41.21751 157.950709,41.3681544 156.97152,41.3681544 Z M156.97152,27.8854759 C155.992331,27.8854759 155.314431,28.1867648 154.862498,28.7140203 C154.485887,29.2412759 154.25992,29.9944982 154.25992,30.8983649 L154.25992,35.3423763 C154.25992,36.246243 154.485887,36.9994653 154.93782,37.5267209 C155.389754,38.1292987 156.067654,38.3552654 156.97152,38.3552654 C157.875387,38.3552654 158.628609,38.0539765 159.00522,37.5267209 C159.457154,36.9241431 159.683121,36.246243 159.683121,35.3423763 L159.683121,30.8983649 C159.683121,29.9944982 159.457154,29.2412759 159.080543,28.7140203 C158.703932,28.1114425 158.026032,27.8854759 156.97152,27.8854759 Z M61.6135814,16.6624641 C62.0655148,15.984564 62.818737,15.5326307 63.4966371,15.5326307 C64.2498593,15.5326307 64.9277594,14.9300529 64.9277594,14.1015084 L64.9277594,12.0678083 L75.09626,9.13024142 L75.09626,22.3869533 C72.9872376,22.3869533 70.6522486,22.3869533 69.447093,22.3869533 L67.4887151,18.2442308 C67.1874262,17.5663308 66.2835595,17.2650419 65.6056594,17.5663308 C64.9277594,17.8676197 64.6264705,18.7714864 64.9277594,19.4493865 L67.2627484,24.4206534 C67.4887151,24.947909 68.0159707,25.2491979 68.5432263,25.2491979 C68.6185485,25.2491979 73.3638488,25.2491979 76.5273823,25.2491979 C76.5273823,25.2491979 76.5273823,25.2491979 76.5273823,25.2491979 C77.3559268,25.2491979 77.5065712,26.0024202 77.5065712,26.3037091 C77.5065712,26.5296758 77.431249,27.4335425 76.5273823,27.4335425 L65.3796927,27.4335425 C64.6264705,25.7764535 62.8940593,21.93502 61.462937,19.0727753 C60.9356814,17.9429419 61.3122925,17.0390752 61.6135814,16.6624641 Z M61.8395481,4.08365223 C62.3668037,3.25510774 63.4213148,2.80317438 64.3251816,2.87849661 C65.0030816,2.95381883 65.5303372,3.33042997 65.9822706,3.93300778 L61.6135814,6.19267458 C61.2369703,5.28880786 61.5382592,4.53558559 61.8395481,4.08365223 Z M68.0159707,8.2263747 L63.1953482,9.58217478 C63.0447037,9.3562081 62.9693815,9.05491919 62.818737,8.75363028 L67.1874262,6.41864126 C67.4887151,7.17186352 67.790004,7.69911911 68.0159707,8.2263747 Z M87.5997496,27.4335425 L80.0675269,27.4335425 C80.1428492,27.0569314 80.2181714,26.6803202 80.2181714,26.3037091 C80.2181714,25.3245201 79.9168825,24.3453312 79.3143047,23.6674312 C78.9376935,23.2154978 78.410438,22.8388867 77.8831824,22.61292 L77.8831824,9.13024142 L87.6750718,11.6158749 L87.6750718,27.4335425 L87.5997496,27.4335425 Z M90.6879609,25.1738757 C91.8931165,25.1738757 91.8931165,26.1530646 91.8931165,26.3790313 C91.8931165,26.6803202 91.8177943,26.9062869 91.5918276,27.1322536 C91.3658609,27.3582203 91.064572,27.4335425 90.6126387,27.4335425 C90.5373164,27.4335425 90.4619942,27.4335425 90.386672,27.4335425 L90.386672,25.1738757 C90.5373164,25.1738757 90.6126387,25.1738757 90.6879609,25.1738757 Z M77.8831824,30.2957871 L89.1061941,30.2957871 C89.1815164,30.2957871 89.1815164,30.2957871 89.2568386,30.2957871 C89.6334497,30.2957871 90.1607053,30.2957871 90.7632831,30.2957871 C92.3450499,30.2957871 93.2489166,29.6178871 93.7761722,29.0906315 C94.4540722,28.4127314 94.8306834,27.4335425 94.8306834,26.3790313 C94.8306834,24.4206534 93.3995611,22.3869533 90.7632831,22.3869533 C90.6879609,22.3869533 90.6126387,22.3869533 90.5373164,22.3869533 L90.5373164,10.4860415 C90.5373164,9.80814146 90.0853831,9.28088587 89.4828053,9.13024142 L77.2806046,6.04203012 C76.9039934,5.81606344 76.5273823,5.74074122 76.1507712,5.89138567 L70.8782153,7.3978302 C70.6522486,6.87057462 70.2756375,6.11735235 69.8237041,5.1381634 L72.6859487,3.63171887 C73.3638488,3.25510774 73.6651377,2.42656325 73.2885265,1.74866321 C72.9119154,1.07076317 72.0833709,0.769474259 71.4054709,1.14608539 L68.6938707,2.5772077 C67.8653262,1.07076317 66.4342039,0.166896445 64.8524372,0.016251992 C62.8940593,-0.134392461 60.9356814,0.769474259 59.7305257,2.42656325 C58.6760146,3.93300778 58.5253701,5.89138567 59.3539146,7.62379688 C60.7097147,10.4107193 61.462937,12.1431305 61.8395481,12.971675 C60.8603591,13.3482861 59.9564924,14.1015084 59.3539146,15.0806973 C58.3747257,16.6624641 58.2994034,18.5455198 59.1279479,20.277931 C60.7097147,23.5167867 62.7434148,28.0361203 63.2706704,29.1659537 L63.2706704,34.2878651 C63.2706704,36.0955986 64.2498593,37.6773653 65.8316261,38.5059098 L68.1666151,39.7110654 L66.8861373,44.9082991 L57.9227923,49.5782771 C57.2448923,49.9548883 56.9436034,50.7834328 57.3202145,51.4613328 L61.5382592,59.7467777 C61.7642259,60.1987111 62.2914814,60.5 62.818737,60.5 C63.0447037,60.5 63.2706704,60.4246778 63.4966371,60.3493555 C64.1745371,59.9727444 64.475826,59.1441999 64.0992149,58.4662999 L60.483748,51.4613328 L68.6938707,47.1679659 C69.0704818,47.0173214 69.2964485,46.6407103 69.447093,46.2640992 L70.7275708,41.1421877 L73.5898154,42.6486323 L71.8574042,49.0510215 L65.2290483,52.4405217 C64.5511482,52.8171329 64.2498593,53.6456774 64.6264705,54.3235774 C64.8524372,54.7755108 65.3796927,55.0767997 65.9069483,55.0767997 C66.132915,55.0767997 66.3588817,55.0014775 66.5848484,54.9261552 L73.7404599,51.2353661 C74.117071,51.0847217 74.3430377,50.7081105 74.4183599,50.3314994 L76.0001267,44.5316879 L81.7246159,58.4662999 C81.8752604,58.842911 82.1765493,59.0688777 82.5531604,59.2195221 C82.7038049,59.2948444 82.9297716,59.2948444 83.080416,59.2948444 C83.3063827,59.2948444 83.4570271,59.2195221 83.6829938,59.1441999 L93.1735944,54.7001885 C93.8514944,54.3988996 94.1527833,53.4950329 93.8514944,52.8171329 C93.5502055,52.1392328 92.6463388,51.8379439 91.9684388,52.1392328 L83.758316,55.9053442 L77.9585046,41.9707322 C77.8078601,41.6694433 77.5818935,41.4434767 77.3559268,41.2928322 L67.1874262,35.8696319 C66.5095261,35.4930207 66.132915,34.8151207 66.132915,34.1372207 L66.132915,30.1451427 L75.2469044,30.1451427 L75.2469044,33.3086762 L72.9872376,32.0281983 C72.3093376,31.6515872 71.4807931,31.8775539 71.0288597,32.5554539 C70.6522486,33.2333539 70.8782153,34.0618984 71.5561153,34.5138318 L80.2181714,39.3344543 L84.8128272,51.1600439 C85.0387939,51.6872995 85.5660495,52.0639106 86.0933051,52.0639106 C86.2439495,52.0639106 86.4699162,52.0639106 86.6205607,51.9885884 C87.3737829,51.6872995 87.6750718,50.858755 87.4491052,50.1808549 L82.6284826,37.903332 C82.4778382,37.6020431 82.2518715,37.3760764 82.0259048,37.1501097 L77.9585046,34.8904429 C78.0338268,34.7397985 78.0338268,34.589154 78.0338268,34.4385096 L78.0338268,30.2957871 L77.8831824,30.2957871 Z" id="Liftoo-footer-logo"></path>
            </g>
        </g>
    </g>
</svg>