<?xml version="1.0" encoding="UTF-8"?>
<svg width="79px" height="41px" viewBox="0 0 79 41" version="1.1" xmlns="http://www.w3.org/2000/svg" xmlns:xlink="http://www.w3.org/1999/xlink">
    <!-- Generator: Sketch 49.1 (51147) - http://www.bohemiancoding.com/sketch -->
    <title>Logo Small Ready@1x</title>
    <desc>Created with Sketch.</desc>
    <defs></defs>
    <g id="Page-1" stroke="none" stroke-width="1" fill="none" fill-rule="evenodd">
        <g id="Landing-1" transform="translate(-1141.000000, -526.000000)">
            <g id="Intro" transform="translate(1.000000, -108.000000)">
                <g id="Logo-Small-Ready" transform="translate(1140.000000, 634.000000)">
                    <path d="M15.5223457,10.000004 C24.0798396,10.0123411 31.0082144,16.9573836 30.9999927,25.5148858 C30.991771,34.072388 24.0500638,41.0041046 15.4925621,40.9999982 C6.93506028,40.9958918 8.89294164e-06,34.0575162 0,25.5000101 C0.00296216944,21.3861893 1.64001186,17.4420368 4.55101659,14.5352215 C7.46202132,11.6284063 11.4085266,9.99703973 15.5223457,10.000004 Z" id="Shape" fill="#2BBEF8"></path>
                    <path d="M20.7501392,9.65886659 C15.4951902,9.65204178 10.5839133,12.2571339 7.65993916,16.6023107 C4.73596498,20.9474875 4.18555877,26.4587389 6.19292202,31.2916441 C6.15876144,31.5496602 6.27214168,31.8050793 6.48681148,31.953708 C9.7911695,39.0013143 17.7897686,42.5706284 25.2757397,40.3381244 C32.7617108,38.1056205 37.4694895,30.7469464 36.3344407,23.0523977 C35.199392,15.357849 28.5650284,9.65611417 20.7501392,9.65886659 Z M20.7501392,11.0810184 C23.2064067,11.0763013 25.6221985,11.7034776 27.7631169,12.9016942 L20.2269514,19.2395098 L14.5752309,12.4662104 C16.5035186,11.5506868 18.6136357,11.0773328 20.7501392,11.0810184 Z M6.43190906,25.3089646 C6.42321016,21.5315042 7.93528324,17.9079629 10.63033,15.247843 C11.4337547,14.4493748 12.3291654,13.7481687 13.297942,13.1588064 L19.1385915,20.1586859 L7.27320802,30.1330322 C6.71460775,28.5855111 6.42995616,26.9532988 6.43190906,25.3089646 Z M35.0683693,25.3089646 C35.056824,30.168505 32.5598608,34.6878313 28.4427149,37.3009293 C24.325569,39.9140274 19.1548071,40.2613048 14.7221756,38.2224247 L34.6049283,21.7013591 C34.9131911,22.8793409 35.0689326,24.091694 35.0683693,25.3089646 Z M13.3609184,37.5009036 C10.9840273,36.0710064 9.07255328,33.9885636 7.85614262,31.5037616 L20.4917748,20.8786001 C20.575665,20.8334984 20.6493218,20.7716859 20.708155,20.6970146 L29.0291023,13.7003489 C29.6865292,14.1641745 30.3039028,14.681803 30.8747927,15.247843 C32.3039105,16.6644086 33.4145944,18.3667255 34.1334133,20.2422474 L13.3609184,37.5009036 Z M20.222107,5.86646168 C20.3897129,5.86833575 20.5526349,5.81144719 20.6823185,5.70576656 L26.0110836,1.26897421 C26.2086733,1.10391805 26.3027685,0.846497878 26.2579244,0.593681381 C26.2130803,0.340864884 26.0361098,0.131060904 25.7936759,0.0433005733 C25.5512421,-0.0444597575 25.2801764,0.00315644305 25.0825866,0.168212612 L19.7538216,4.60500496 C19.5238583,4.79752187 19.4393218,5.11254457 19.5422228,5.39352199 C19.6451238,5.67449941 19.9135207,5.86151891 20.2140331,5.86164083 L20.222107,5.86646168 Z M46.0165593,26.1718974 C49.2073592,26.1718974 50.9900733,24.7497456 50.9900733,22.1738028 C50.9900733,17.2067165 43.1584035,18.6706491 43.1584035,15.247843 C43.1584035,14.0731616 43.9867842,12.9981112 46.163504,12.9981112 C47.9042339,12.9981112 48.8989367,13.864258 49.520626,14.6259528 C49.6919427,14.8544412 49.9907523,14.948525 50.2629592,14.8596856 C50.5351661,14.7708461 50.7199508,14.5189327 50.7220203,14.2338567 C50.7223471,14.0935025 50.6789038,13.9565052 50.5976824,13.8417606 C49.7273175,12.543344 48.1319175,11.7189781 46.163504,11.7189781 C43.1357966,11.7237989 41.755162,13.3452127 41.755162,15.247843 C41.755162,20.1329747 49.5868319,18.3187268 49.5868319,22.1738028 C49.5868319,23.9880507 48.29501,24.8943712 46.0230184,24.8943712 C44.1999348,24.8943712 42.9985406,24.0073341 42.3348671,22.9354977 C42.2154752,22.7296821 41.9939567,22.6038012 41.755162,22.6060727 C41.5786329,22.6034562 41.4085399,22.6719773 41.2835492,22.7960597 C41.1585584,22.920142 41.0892894,23.0892433 41.0914886,23.2649227 C41.0916594,23.3956696 41.1273693,23.5239354 41.1948343,23.6361284 C41.8940329,24.9763257 43.6541401,26.1718974 46.0165593,26.1718974 Z M56.4787013,26.1510071 C58.3227769,26.1510071 59.3998334,25.3057507 59.7082558,24.9972161 C59.853528,24.8790731 59.9372387,24.7018284 59.9359394,24.5151307 C59.9359394,24.1849827 59.6669982,23.9173449 59.3352423,23.9173449 C59.2001959,23.9139509 59.0682196,23.9577298 58.9622287,24.0410801 C58.3825237,24.47335 57.6704069,24.9281172 56.4754717,24.9281172 C54.5280503,24.9281172 53.3460334,23.6088102 53.3460334,21.5679822 L59.3966038,21.5679822 C60.2249846,21.5679822 60.2249846,20.8464611 60.2249846,20.2486752 C60.2249846,18.8474137 59.5790737,16.2312971 56.2671655,16.2312971 C53.573717,16.2312971 51.9993091,17.9989435 51.9993091,21.177493 C52.0041534,24.6469007 53.7238912,26.1510071 56.4787013,26.1510071 Z M56.2720098,17.4332966 C58.4067454,17.4332966 58.9234741,18.937403 58.9234741,20.4222259 L53.3508777,20.4222259 C53.4752155,18.5870876 54.4699183,17.4316897 56.2720098,17.4316897 L56.2720098,17.4332966 Z M65.5117654,26.1510071 C67.355841,26.1510071 68.4328975,25.3057507 68.7413199,24.9972161 C68.8865921,24.8790731 68.9703028,24.7018284 68.9690035,24.5151307 C68.9690035,24.1849827 68.7000623,23.9173449 68.3683064,23.9173449 C68.23326,23.9139509 68.1012837,23.9577298 67.9952928,24.0410801 C67.4155878,24.47335 66.703471,24.9281172 65.5085358,24.9281172 C63.5611144,24.9281172 62.3790975,23.6088102 62.3790975,21.5679822 L68.4296679,21.5679822 C69.2580487,21.5679822 69.2580487,20.8464611 69.2580487,20.2486752 C69.2580487,18.8474137 68.6121378,16.2312971 65.3002296,16.2312971 C62.6067811,16.2312971 61.0323732,17.9989435 61.0323732,21.177493 C61.0356028,24.6469007 62.7553406,26.1510071 65.5117654,26.1510071 Z M65.3050739,17.4332966 C67.4398095,17.4332966 67.9565382,18.937403 67.9565382,20.4222259 L62.382327,20.4222259 C62.5066649,18.5870876 63.5013677,17.4316897 65.3050739,17.4316897 L65.3050739,17.4332966 Z M74.751521,26.1510071 C77.4239774,26.1510071 79,24.5633393 79,21.1839208 C79,17.8045024 77.5079458,16.2377249 74.8354894,16.2377249 C73.5097572,16.2377249 72.4940623,16.9174653 72.017703,17.5779223 L72.017703,11.8668176 C72.0002559,11.5151454 71.7086523,11.2389287 71.354837,11.2389287 C71.0010216,11.2389287 70.709418,11.5151454 70.6919709,11.8668176 L70.6919709,22.0902413 C70.6903561,24.8108098 72.3891018,26.1510071 74.751521,26.1510071 Z M72.0160883,19.2411168 C72.0160883,19.2411168 72.8040996,17.4268688 74.751521,17.4268688 C76.6375808,17.4268688 77.6726531,18.6433309 77.6726531,21.177493 C77.6726531,23.748615 76.6569582,24.9490076 74.751521,24.9490076 C73.156121,24.9490076 72.0160883,24.0426871 72.0160883,22.0838135 L72.0160883,19.2411168 Z M46.9111459,37.5780373 L48.0059649,38.6659433 L49.0910952,37.586072 L47.9962762,36.4981661 L46.9111459,37.5780373 Z M58.3050144,37.5780373 L59.3998334,38.6659433 L60.4849637,37.586072 L59.3901447,36.4981661 L58.3050144,37.5780373 Z M60.9451752,37.5780373 L62.0399942,38.6659433 L63.1251246,37.586072 L62.0303056,36.4981661 L60.9451752,37.5780373 Z M76.795829,29.8196767 C76.989919,30.4621765 77.0984967,31.1272332 77.1187845,31.7978337 C77.1187845,32.3902631 77.015977,32.8477085 76.810362,33.1701701 C76.6086393,33.4858089 76.2524981,33.6697614 75.8770207,33.6522554 C75.6240641,33.6601465 75.3731459,33.6049027 75.1471414,33.4915603 C74.9450701,33.388081 74.7803023,33.2246733 74.6756264,33.0239375 C74.553334,32.7887863 74.4839082,32.5299756 74.4721645,32.2654565 L74.3510562,30.5299492 L73.2626963,30.6585053 L73.2949919,31.029711 C73.3057571,31.1754079 73.3138309,31.3018214 73.3192135,31.4089515 C73.3192135,31.5385789 73.3219048,31.6649924 73.3272874,31.788192 C73.3298397,31.9858553 73.3136199,32.1833164 73.2788441,32.3779431 C73.2220578,32.7510643 73.0351268,33.0923947 72.7508119,33.3421138 C72.1033299,33.7878784 71.2430965,33.7762664 70.6080025,33.3131887 C70.3294556,33.0325055 70.17387,32.6535149 70.1752422,32.2590287 L70.0541339,30.5235214 L68.9577001,30.6520775 L68.9899956,31.0232832 C69.0061434,31.1850496 69.0169086,31.3168196 69.0222912,31.4185932 C69.0222912,31.5428641 69.0249825,31.6639211 69.0303651,31.7817642 C69.0334425,31.9794451 69.0172185,32.1769561 68.9819218,32.3715153 C68.7978371,33.228556 68.1185542,33.6570763 66.9440728,33.6570763 L64.2086401,33.6570763 C63.9080552,33.6652402 63.6096379,33.6041961 63.3366604,33.4787047 C63.1000009,33.3639034 62.903607,33.1807814 62.7731031,32.9532316 C62.6275194,32.6869701 62.5441732,32.3914542 62.5292717,32.0886919 L62.4081635,30.3531845 L61.3117297,30.4817406 L61.3520991,31.0232832 C61.3682469,31.2653972 61.3763208,31.5235807 61.3763208,31.7978337 C61.3790105,32.0304732 61.360091,32.2628622 61.3198036,32.4920366 C61.1733971,33.2676584 60.4429795,33.6554693 59.1285508,33.6554693 L56.0184898,33.6554693 C55.4554707,33.6554693 55.0442408,33.4947742 54.7847999,33.173384 C54.519726,32.8261831 54.3696276,32.405586 54.3552692,31.9697775 L54.2341609,30.3628263 L53.1377271,30.4913824 L53.1700226,31.0329249 C53.1807878,31.1571958 53.1861704,31.3130701 53.1861704,31.5005477 C53.1861704,31.9954887 53.0833629,32.3506249 52.8777479,32.5659564 C52.1844702,33.2922984 50.4146743,33.6554693 47.5683603,33.6554693 C44.3646421,33.6554693 42.7627831,32.7293298 42.7627831,30.8770507 C42.7683471,30.454605 42.8481358,30.0363851 42.9985406,29.6413052 L41.9344023,29.1817171 C41.6805661,29.7880556 41.5510018,30.4387468 41.5533149,31.095596 C41.5533149,32.3608023 42.0522811,33.3110461 43.0502134,33.9463275 C44.0481458,34.5816089 45.5676512,34.8992496 47.6087297,34.8992496 L47.6410252,34.8992496 C48.5377118,34.9066893 49.4338574,34.8529986 50.3231703,34.7385545 C50.9898494,34.6580148 51.6449472,34.5011004 52.275436,34.2709317 C52.7321542,34.1097884 53.1477758,33.8508725 53.4929781,33.5124507 L53.6140864,33.3838946 L53.6867514,33.5445897 C54.1453481,34.4509102 54.9182882,34.9056774 56.0055715,34.9088913 L59.1656907,34.9088913 C60.4575125,34.9088913 61.3612495,34.5457203 61.8769017,33.8193784 L61.9899361,33.6586832 L62.0868228,33.8370548 C62.4566068,34.5360786 63.1348132,34.8912148 64.1165978,34.9072843 L64.1488934,34.9072843 L66.9166216,34.9072843 C68.2149025,34.9072843 69.0944179,34.5034039 69.5551677,33.6956431 C69.9018065,34.4980474 70.6106938,34.9019278 71.6818294,34.9072843 C72.6184002,34.9126408 73.3719629,34.5167952 73.9425176,33.7197474 C74.2783912,34.5060822 74.9307613,34.8992496 75.8996276,34.8992496 C76.0407476,34.899681 76.1816782,34.8889341 76.3210845,34.8671106 C76.4509079,34.8471155 76.5785161,34.81483 76.7021719,34.7706935 C76.8228091,34.727079 76.9394947,34.6733197 77.0509638,34.6099984 C77.1575623,34.5464092 77.2580967,34.4732564 77.3513124,34.391453 C77.9789225,33.842947 78.2954188,32.9735864 78.3008014,31.7833711 L78.3008014,31.7431974 C78.2957801,30.9865669 78.1754562,30.2350717 77.9439357,29.514356 L76.795829,29.8196767 Z" id="Shape" fill="#FFFFFF" fill-rule="nonzero"></path>
                </g>
            </g>
        </g>
    </g>
</svg>